<svg width="32" height="32" viewBox="0 0 32 32" fill="none" xmlns="http://www.w3.org/2000/svg">
<path d="M16 31C24.2843 31 31 24.2843 31 16C31 7.71573 24.2843 1 16 1C7.71573 1 1 7.71573 1 16C1 24.2843 7.71573 31 16 31Z" stroke="black" stroke-width="0.5" stroke-miterlimit="10"/>
<path d="M9.14286 7C7.96449 7 7 7.96449 7 9.14286V22.8571C7 24.0355 7.96449 25 9.14286 25H22.8571C24.0355 25 25 24.0355 25 22.8571V9.14286C25 7.96449 24.0355 7 22.8571 7H9.14286ZM9.14286 7.85714H11.9629C10.4324 9.44958 9.57143 11.5078 9.57143 13.6429C9.57143 15.8543 10.4758 17.9714 12.1044 19.5742C12.1558 19.6642 12.1985 20.1055 12.0014 20.6155C11.8771 20.9369 11.6284 21.3568 11.1484 21.5153C10.9642 21.5753 10.8443 21.7561 10.8571 21.9489C10.87 22.1418 11.0118 22.3046 11.2003 22.3432C12.4303 22.5875 13.2268 22.2186 13.8697 21.9272C14.4483 21.6615 14.8303 21.4813 15.4174 21.7213C16.6174 22.1884 17.8943 22.4286 19.2143 22.4286C20.9687 22.4286 22.6563 22.0003 24.1429 21.1914V22.8571C24.1429 23.5722 23.5722 24.1429 22.8571 24.1429H9.14286C8.42779 24.1429 7.85714 23.5722 7.85714 22.8571V9.14286C7.85714 8.42779 8.42779 7.85714 9.14286 7.85714ZM19.4286 11.7143C19.6643 11.7143 19.8571 11.9071 19.8571 12.1429V16C19.8571 16.2357 19.6643 16.4286 19.4286 16.4286C19.1929 16.4286 19 16.2357 19 16V12.1429C19 11.9071 19.1929 11.7143 19.4286 11.7143ZM13 12.1429H15.1429C15.2971 12.1429 15.4432 12.2284 15.5204 12.3655C15.5932 12.4984 15.5884 12.6654 15.507 12.7983L13.7718 15.5714H15.1429C15.3786 15.5714 15.5714 15.7643 15.5714 16C15.5714 16.2357 15.3786 16.4286 15.1429 16.4286H13C12.8457 16.4286 12.6996 16.3431 12.6225 16.2059C12.5496 16.0731 12.5545 15.906 12.6359 15.7732L14.3711 13H13C12.7643 13 12.5714 12.8071 12.5714 12.5714C12.5714 12.3357 12.7643 12.1429 13 12.1429ZM17.0714 13.4286C17.3329 13.4286 17.5769 13.5011 17.7955 13.6211C17.8726 13.5097 17.9929 13.4286 18.1429 13.4286C18.3786 13.4286 18.5714 13.6214 18.5714 13.8571V16C18.5714 16.2357 18.3786 16.4286 18.1429 16.4286C17.9929 16.4286 17.8726 16.3475 17.7955 16.236C17.5769 16.356 17.3329 16.4286 17.0714 16.4286C16.2443 16.4286 15.5714 15.7557 15.5714 14.9286C15.5714 14.1014 16.2443 13.4286 17.0714 13.4286ZM21.7857 13.4286C22.6129 13.4286 23.2857 14.1014 23.2857 14.9286C23.2857 15.7557 22.6129 16.4286 21.7857 16.4286C20.9586 16.4286 20.2857 15.7557 20.2857 14.9286C20.2857 14.1014 20.9586 13.4286 21.7857 13.4286ZM17.0714 14.2857C17.027 14.2857 16.9836 14.2906 16.9417 14.2991C16.8579 14.3162 16.7799 14.3492 16.7115 14.3954C16.6431 14.4415 16.5844 14.5003 16.5382 14.5686C16.4921 14.637 16.4591 14.715 16.442 14.7988C16.4334 14.8407 16.4286 14.8841 16.4286 14.9286C16.4286 14.973 16.4334 15.0164 16.442 15.0583C16.4505 15.1002 16.4626 15.1404 16.4788 15.1789C16.495 15.2173 16.5151 15.2543 16.5382 15.2885C16.5613 15.3227 16.5878 15.354 16.6169 15.3831C16.646 15.4122 16.6773 15.4387 16.7115 15.4618C16.7799 15.5079 16.8579 15.5409 16.9417 15.558C16.9836 15.5666 17.027 15.5714 17.0714 15.5714C17.1159 15.5714 17.1593 15.5666 17.2012 15.558C17.4944 15.4982 17.7143 15.2398 17.7143 14.9286C17.7143 14.5729 17.4271 14.2857 17.0714 14.2857ZM21.7857 14.2857C21.7413 14.2857 21.6979 14.2906 21.656 14.2991C21.6141 14.3077 21.5739 14.3197 21.5354 14.3359C21.497 14.3522 21.46 14.3723 21.4258 14.3954C21.3916 14.4184 21.3603 14.445 21.3312 14.4741C21.2731 14.5322 21.2256 14.6014 21.1931 14.6783C21.1768 14.7168 21.1648 14.7569 21.1562 14.7988C21.1477 14.8407 21.1429 14.8841 21.1429 14.9286C21.1429 14.973 21.1477 15.0164 21.1562 15.0583C21.1648 15.1002 21.1768 15.1404 21.1931 15.1789C21.2093 15.2173 21.2294 15.2543 21.2525 15.2885C21.2756 15.3227 21.3021 15.354 21.3312 15.3831C21.3603 15.4122 21.3916 15.4387 21.4258 15.4618C21.46 15.4849 21.497 15.505 21.5354 15.5212C21.5739 15.5374 21.6141 15.5495 21.656 15.558C21.6979 15.5666 21.7413 15.5714 21.7857 15.5714C21.8302 15.5714 21.8736 15.5666 21.9155 15.558C22.2087 15.4982 22.4286 15.2398 22.4286 14.9286C22.4286 14.5729 22.1414 14.2857 21.7857 14.2857Z" fill="black"/>
</svg>
